<svg width="10" height="19" viewBox="0 0 10 19" fill="none" xmlns="http://www.w3.org/2000/svg">
<path d="M9.36525 0.00395327L7.03106 0C4.40867 0 2.71396 1.83531 2.71396 4.67592V6.83184H0.36703C0.164227 6.83184 0 7.00538 0 7.21946V10.3431C0 10.5572 0.164415 10.7306 0.36703 10.7306H2.71396V18.6126C2.71396 18.8267 2.87819 19 3.08099 19H6.14307C6.34587 19 6.5101 18.8265 6.5101 18.6126V10.7306H9.25421C9.45701 10.7306 9.62124 10.5572 9.62124 10.3431L9.62236 7.21946C9.62236 7.11667 9.5836 7.01824 9.51487 6.94549C9.44615 6.87275 9.35252 6.83184 9.25514 6.83184H6.5101V5.00424C6.5101 4.12583 6.70841 3.6799 7.79246 3.6799L9.36488 3.67931C9.56749 3.67931 9.73172 3.50575 9.73172 3.29189V0.391374C9.73172 0.1777 9.56768 0.00434859 9.36525 0.00395327Z" fill="white"/>
</svg>
