<svg width="19" height="15" viewBox="0 0 19 15" fill="none" xmlns="http://www.w3.org/2000/svg">
<g clip-path="url(#clip0)">
<path d="M18.8993 12.8816C18.8763 12.8164 18.8548 12.7622 18.8349 12.7189C18.5052 11.9377 17.8753 10.9789 16.9454 9.84205L16.9258 9.81601L16.916 9.80325L16.906 9.79016H16.896C16.4739 9.26081 16.2067 8.90489 16.0948 8.72266C15.8901 8.37554 15.8442 8.02416 15.9561 7.66815C16.0351 7.39916 16.3322 6.8311 16.8464 5.9632C17.1169 5.50322 17.3311 5.13459 17.4894 4.85685C18.6305 2.86089 19.1251 1.58544 18.9733 1.03001L18.9144 0.900216C18.8748 0.822074 18.7726 0.750587 18.6078 0.685392C18.4428 0.620335 18.2318 0.609576 17.9746 0.652933L15.1256 0.678827C15.0794 0.657309 15.0135 0.659315 14.9277 0.685392C14.8419 0.71147 14.799 0.724555 14.799 0.724555L14.7494 0.757152L14.7101 0.796315C14.6771 0.82221 14.6408 0.867756 14.6012 0.932859C14.5618 0.997735 14.5289 1.07387 14.5025 1.16063C14.1923 2.21062 13.8397 3.18686 13.4439 4.08929C13.1999 4.62739 12.9758 5.09374 12.7711 5.4886C12.5667 5.88333 12.3952 6.17414 12.2568 6.36056C12.1182 6.54716 11.9932 6.69666 11.8808 6.80959C11.7687 6.92256 11.6831 6.97029 11.6237 6.95283C11.5644 6.93538 11.5084 6.91805 11.4554 6.90072C11.3631 6.82257 11.2889 6.71631 11.233 6.58181C11.1768 6.44733 11.1389 6.27805 11.1192 6.07411C11.0994 5.87005 11.0878 5.69453 11.0845 5.54695C11.0814 5.39956 11.0828 5.19107 11.0895 4.92209C11.0964 4.65296 11.0994 4.47087 11.0994 4.37541C11.0994 4.04561 11.1044 3.68767 11.1141 3.30153C11.1241 2.91536 11.1322 2.60941 11.1389 2.38401C11.1457 2.15838 11.1488 1.91967 11.1488 1.66801C11.1488 1.41635 11.1371 1.21898 11.1141 1.07574C11.0914 0.932676 11.0566 0.793808 11.0106 0.659178C10.9643 0.524686 10.8966 0.420648 10.8078 0.346791C10.7188 0.273025 10.6081 0.214486 10.4764 0.170994C10.1268 0.0669099 9.68164 0.0106055 9.14076 0.00185206C7.91416 -0.0154724 7.126 0.0887476 6.77645 0.314376C6.63796 0.409706 6.51264 0.539959 6.40059 0.704722C6.28185 0.895702 6.26529 0.999922 6.35101 1.01706C6.74677 1.09507 7.02693 1.28168 7.19183 1.57669L7.25126 1.73303C7.29747 1.84581 7.34362 2.0455 7.38981 2.33181C7.43594 2.61811 7.4657 2.93484 7.47879 3.28177C7.51171 3.91535 7.51171 4.4577 7.47879 4.90886C7.44577 5.36021 7.41459 5.71157 7.38483 5.96324C7.35506 6.2149 7.31057 6.41883 7.25126 6.57498C7.19183 6.73118 7.15229 6.82664 7.13248 6.86129C7.11269 6.89594 7.0962 6.91778 7.08311 6.92634C6.99738 6.96956 6.90823 6.99159 6.81596 6.99159C6.72355 6.99159 6.6115 6.93076 6.47962 6.80923C6.34779 6.68767 6.21096 6.52073 6.06913 6.30809C5.92732 6.09541 5.76738 5.7982 5.58925 5.41642C5.41126 5.03465 5.22658 4.58344 5.03531 4.0628L4.87707 3.68521C4.77815 3.4423 4.64302 3.08861 4.47155 2.62445C4.29997 2.16011 4.14831 1.71095 4.01647 1.27706C3.96376 1.09484 3.88459 0.95611 3.77909 0.860644L3.72958 0.821481C3.69666 0.786833 3.64382 0.75004 3.57134 0.710832C3.49875 0.67167 3.423 0.643586 3.34379 0.626306L0.633243 0.652202C0.35626 0.652202 0.168325 0.734768 0.0693671 0.899669L0.0297634 0.977674C0.0099789 1.02112 0 1.09051 0 1.18602C0 1.28149 0.0197845 1.39866 0.0593882 1.53739C0.455079 2.76105 0.885384 3.94116 1.3503 5.07791C1.81522 6.21467 2.21923 7.13036 2.56207 7.82416C2.905 8.51846 3.25454 9.17374 3.61069 9.78966C3.96685 10.4058 4.2026 10.8007 4.31795 10.9741C4.43343 11.1479 4.52414 11.2779 4.59008 11.3646L4.83744 11.677C4.99572 11.8853 5.22814 12.1348 5.53481 12.4254C5.84156 12.7163 6.18116 13.0025 6.55377 13.2847C6.92645 13.5666 7.36002 13.7965 7.8547 13.9744C8.34931 14.1524 8.83072 14.2239 9.299 14.1894H10.4367C10.6674 14.1631 10.8422 14.0677 10.961 13.903L11.0003 13.8377C11.0268 13.7859 11.0516 13.7055 11.0744 13.5971C11.0976 13.4887 11.1091 13.3693 11.1091 13.2393C11.1024 12.8661 11.1239 12.5299 11.1733 12.2306C11.2226 11.9313 11.2788 11.7057 11.3417 11.5538C11.4045 11.4019 11.4753 11.2738 11.5543 11.17C11.6333 11.0659 11.6897 11.0028 11.7227 10.9811C11.7556 10.9593 11.7818 10.9445 11.8016 10.9356C11.9598 10.8662 12.1461 10.9334 12.3606 11.1375C12.5751 11.3414 12.7762 11.5932 12.9642 11.8925C13.1522 12.192 13.378 12.5281 13.6417 12.9011C13.9057 13.2744 14.1365 13.5518 14.3342 13.7343L14.532 13.8905C14.6641 13.9946 14.8356 14.0901 15.0467 14.1769C15.2574 14.2636 15.442 14.2854 15.6004 14.242L18.1328 14.19C18.3834 14.19 18.5782 14.1354 18.7164 14.0271C18.855 13.9186 18.9373 13.7991 18.9638 13.6693C18.9903 13.5391 18.9917 13.3915 18.9688 13.2264C18.9454 13.0618 18.9223 12.9466 18.8993 12.8816Z" fill="white"/>
</g>
<defs>
<clipPath id="clip0">
<rect width="19" height="15" fill="white"/>
</clipPath>
</defs>
</svg>
