<svg width="19" height="15" viewBox="0 0 19 15" fill="none" xmlns="http://www.w3.org/2000/svg">
<path d="M18.2594 1.2298C17.5736 0.356304 16.3073 0 13.8891 0H5.11076C2.63714 0 1.34943 0.379287 0.666165 1.30924C0 2.21596 0 3.55194 0 5.40095V8.92518C0 12.5073 0.7904 14.3261 5.11076 14.3261H13.8891C15.9862 14.3261 17.1483 14.0117 17.9001 13.2408C18.6711 12.4503 19 11.1597 19 8.92518V5.40095C19 3.45101 18.9485 2.10716 18.2594 1.2298ZM12.1981 7.64962L8.21186 9.88167C8.12275 9.93157 8.02529 9.95634 7.92796 9.95634C7.81776 9.95634 7.70781 9.92455 7.61042 9.86137C7.42704 9.74233 7.31506 9.52937 7.31506 9.29967V4.84989C7.31506 4.62058 7.42673 4.40782 7.60975 4.2887C7.79282 4.16959 8.02051 4.16145 8.21045 4.26717L12.1967 6.48483C12.3995 6.59765 12.5268 6.82197 12.5271 7.0667C12.5274 7.31164 12.4006 7.53628 12.1981 7.64962Z" fill="white"/>
</svg>
